<svg xmlns="http://www.w3.org/2000/svg" viewBox="0 0 24 24" width="44" height="44" style="image-rendering:pixelated">
  <rect width="24" height="24" fill="#f0e6ff"/>
  <rect x="6" y="0" width="3" height="3" fill="#4a235a"/>
  <rect x="9" y="0" width="3" height="3" fill="#4a235a"/>
  <rect x="12" y="0" width="3" height="3" fill="#4a235a"/>
  <rect x="15" y="0" width="3" height="3" fill="#4a235a"/>
  <rect x="3" y="3" width="3" height="3" fill="#4a235a"/>
  <rect x="6" y="3" width="3" height="3" fill="#4a235a"/>
  <rect x="15" y="3" width="3" height="3" fill="#4a235a"/>
  <rect x="18" y="3" width="3" height="3" fill="#4a235a"/>
  <rect x="0" y="6" width="3" height="3" fill="#4a235a"/>
  <rect x="3" y="6" width="3" height="3" fill="#4a235a"/>
  <rect x="9" y="6" width="3" height="3" fill="#4a235a"/>
  <rect x="12" y="6" width="3" height="3" fill="#4a235a"/>
  <rect x="18" y="6" width="3" height="3" fill="#4a235a"/>
  <rect x="21" y="6" width="3" height="3" fill="#4a235a"/>
  <rect x="0" y="9" width="3" height="3" fill="#4a235a"/>
  <rect x="3" y="9" width="3" height="3" fill="#4a235a"/>
  <rect x="18" y="9" width="3" height="3" fill="#4a235a"/>
  <rect x="21" y="9" width="3" height="3" fill="#4a235a"/>
  <rect x="0" y="12" width="3" height="3" fill="#4a235a"/>
  <rect x="3" y="12" width="3" height="3" fill="#4a235a"/>
  <rect x="18" y="12" width="3" height="3" fill="#4a235a"/>
  <rect x="21" y="12" width="3" height="3" fill="#4a235a"/>
  <rect x="0" y="15" width="3" height="3" fill="#4a235a"/>
  <rect x="3" y="15" width="3" height="3" fill="#4a235a"/>
  <rect x="9" y="15" width="3" height="3" fill="#4a235a"/>
  <rect x="12" y="15" width="3" height="3" fill="#4a235a"/>
  <rect x="18" y="15" width="3" height="3" fill="#4a235a"/>
  <rect x="21" y="15" width="3" height="3" fill="#4a235a"/>
  <rect x="3" y="18" width="3" height="3" fill="#4a235a"/>
  <rect x="6" y="18" width="3" height="3" fill="#4a235a"/>
  <rect x="15" y="18" width="3" height="3" fill="#4a235a"/>
  <rect x="18" y="18" width="3" height="3" fill="#4a235a"/>
  <rect x="6" y="21" width="3" height="3" fill="#4a235a"/>
  <rect x="9" y="21" width="3" height="3" fill="#4a235a"/>
  <rect x="12" y="21" width="3" height="3" fill="#4a235a"/>
  <rect x="15" y="21" width="3" height="3" fill="#4a235a"/>
</svg>
