<svg xmlns="http://www.w3.org/2000/svg" viewBox="0 0 24 24" width="44" height="44" style="image-rendering:pixelated">
  <rect width="24" height="24" fill="#fff8e1"/>
  <rect x="6" y="0" width="3" height="3" fill="#795548"/>
  <rect x="15" y="0" width="3" height="3" fill="#795548"/>
  <rect x="6" y="3" width="3" height="3" fill="#795548"/>
  <rect x="9" y="3" width="3" height="3" fill="#795548"/>
  <rect x="12" y="3" width="3" height="3" fill="#795548"/>
  <rect x="15" y="3" width="3" height="3" fill="#795548"/>
  <rect x="6" y="6" width="3" height="3" fill="#795548"/>
  <rect x="9" y="6" width="3" height="3" fill="#795548"/>
  <rect x="12" y="6" width="3" height="3" fill="#795548"/>
  <rect x="15" y="6" width="3" height="3" fill="#795548"/>
  <rect x="3" y="9" width="3" height="3" fill="#795548"/>
  <rect x="9" y="9" width="3" height="3" fill="#795548"/>
  <rect x="12" y="9" width="3" height="3" fill="#795548"/>
  <rect x="18" y="9" width="3" height="3" fill="#795548"/>
  <rect x="3" y="12" width="3" height="3" fill="#795548"/>
  <rect x="18" y="12" width="3" height="3" fill="#795548"/>
  <rect x="6" y="15" width="3" height="3" fill="#795548"/>
  <rect x="15" y="15" width="3" height="3" fill="#795548"/>
  <rect x="6" y="18" width="3" height="3" fill="#795548"/>
  <rect x="15" y="18" width="3" height="3" fill="#795548"/>
  <rect x="3" y="21" width="3" height="3" fill="#795548"/>
  <rect x="6" y="21" width="3" height="3" fill="#795548"/>
  <rect x="9" y="21" width="3" height="3" fill="#795548"/>
  <rect x="12" y="21" width="3" height="3" fill="#795548"/>
  <rect x="15" y="21" width="3" height="3" fill="#795548"/>
  <rect x="18" y="21" width="3" height="3" fill="#795548"/>
</svg>
